<svg width="120" height="120" viewBox="0 0 120 120" fill="none" xmlns="http://www.w3.org/2000/svg">
  <circle cx="60" cy="24" r="12" fill="#de7b12" />
  <circle cx="96" cy="60" r="12" fill="#3A7DFF" />
  <circle cx="60" cy="96" r="12" fill="#228B22" />
  <circle cx="24" cy="60" r="12" fill="#D72638" />
  <circle cx="60" cy="60" r="44" stroke="#F9F9F1" stroke-width="12" fill="none" />
  <path d="M60 16a44 44 0 0 1 40.5 24L90 49.4c-4.8-9.5-14.6-15.8-25.6-15.8S43.6 39.9 38.8 49.4L19.5 40A44 44 0 0 1 60 16Z" fill="#de7b12" />
  <path d="M104 60c0 7.7-1.8 15-5.2 21.5L78.8 71c3.8-5.6 5.8-12.1 5.8-19s-2-13.4-5.8-19l20-10.5C102.2 45 104 52.3 104 60Z" fill="#3A7DFF" />
  <path d="M60 104c-14 0-26.7-7.5-34-19.5l20-10.5c3.8 5.6 9.9 9.1 16.6 9.1s12.8-3.5 16.6-9.1l20 10.5C86.7 96.5 74 104 60 104Z" fill="#228B22" />
  <path d="M16 60c0-7.7 1.8-15 5.2-21.5L41.2 49c-3.8 5.6-5.8 12.1-5.8 19s2 13.4 5.8 19l-20 10.5C17.8 75 16 67.7 16 60Z" fill="#D72638" />
  <circle cx="60" cy="60" r="22" fill="#F9F9F1" />
</svg>
